<svg xmlns="http://www.w3.org/2000/svg" viewBox="0 0 28 32"><defs><style>.cls-1{fill:#90f1c0;}</style></defs><g id="Ebene_2" data-name="Ebene 2"><g id="Ebene_1-2" data-name="Ebene 1"><path class="cls-1" d="M24,6.6V3a3,3,0,0,0-3-3H7A3,3,0,0,0,4,3V6.6L.29,10.31A1,1,0,0,0,0,11V31a1,1,0,0,0,.29.7A1,1,0,0,0,1,32H27a1,1,0,0,0,.71-.28A1,1,0,0,0,28,31V11a1,1,0,0,0-.29-.71ZM6,3A1,1,0,0,1,7,2H21a1,1,0,0,1,1,1V6H6ZM18,30H2V12H18Zm.59-20H3.41l2-2H20.59ZM26,30H20V11.43l3-3,3,3Z"/><path class="cls-1" d="M10,26a4,4,0,0,0,4-4,3.61,3.61,0,0,0-.44-1.61,18.09,18.09,0,0,0-2.82-3.56,1,1,0,0,0-1.48,0C8.8,17.36,8,18.15,7.35,19a9,9,0,0,0-.91,1.39A3.61,3.61,0,0,0,6,22,4,4,0,0,0,10,26Zm-1.78-4.7A12.57,12.57,0,0,1,10,19c.36.4.74.82,1.07,1.26a7.58,7.58,0,0,1,.71,1.07A1.84,1.84,0,0,1,12,22a2,2,0,0,1-4,0A1.84,1.84,0,0,1,8.22,21.32Z"/></g></g></svg>