<svg xmlns="http://www.w3.org/2000/svg" viewBox="0 0 32 16"><defs><style>.cls-1{fill:#90f1c0;}</style></defs><g id="Ebene_2" data-name="Ebene 2"><g id="Ebene_1-2" data-name="Ebene 1"><path class="cls-1" d="M28.06,3.72C25.78,1.9,22.62,0,19,0S12.21,1.9,9.94,3.72a25.78,25.78,0,0,0-3.19,3l-5-5A1,1,0,0,0,.62,1.49,1,1,0,0,0,0,2.41V13.59a1,1,0,0,0,1.71.7l5-5a25.78,25.78,0,0,0,3.19,3C12.21,14.1,15.38,16,19,16s6.78-1.9,9.06-3.72a25.46,25.46,0,0,0,3.73-3.66,1,1,0,0,0,0-1.24A24.9,24.9,0,0,0,28.06,3.72ZM2,11.17V4.83L5.17,8Zm21.31,1.77A10.07,10.07,0,0,1,19,14c-2.88,0-5.72-1.6-7.81-3.28a24.21,24.21,0,0,1-2.5-2.31L8.31,8a23.68,23.68,0,0,1,3.28-3A12.75,12.75,0,0,1,19,2a10.15,10.15,0,0,1,4.32,1.06,9.94,9.94,0,0,0,0,9.88ZM26.41,11c-.42.32-.87.64-1.34.93a7.85,7.85,0,0,1,0-7.93,19.72,19.72,0,0,1,1.73,1.25,24.21,24.21,0,0,1,2.5,2.31l.38.41A23.68,23.68,0,0,1,26.41,11Z"/><circle class="cls-1" cx="27" cy="7" r="1"/><path class="cls-1" d="M19,8a1,1,0,0,0,0-2,3,3,0,0,0,0,6,1,1,0,0,0,0-2h0a1,1,0,0,1,0-2Z"/></g></g></svg>