<svg xmlns="http://www.w3.org/2000/svg" viewBox="0 0 24.8 34.36"><defs><style>.cls-1{fill:#90f1c0;}</style></defs><g id="Ebene_2" data-name="Ebene 2"><g id="Ebene_1-2" data-name="Ebene 1"><path class="cls-1" d="M24.8,13a4.55,4.55,0,0,0-3.5-4.44L13.4,6.63V4.41l2.7-2.7A1,1,0,1,0,14.68.29l-3,3a1,1,0,0,0-.29.7V6.63L3.5,8.52A4.54,4.54,0,0,0,2.41,17v5.93a10,10,0,0,0,9,9.94v.54a1,1,0,0,0,2,0v-.54a10,10,0,0,0,9-9.94V17A4.55,4.55,0,0,0,24.8,13Zm-4.41,4.55v5.37a8,8,0,1,1-16,0V17.51h16Zm-.15-2H4.56a2.56,2.56,0,0,1-.6-5l8.44-2,8.43,2a2.55,2.55,0,0,1-.59,5Z"/></g></g></svg>