<svg xmlns="http://www.w3.org/2000/svg" viewBox="0 0 32 24"><defs><style>.cls-1{fill:#90f1c0;}</style></defs><g id="Ebene_2" data-name="Ebene 2"><g id="Ebene_1-2" data-name="Ebene 1"><path class="cls-1" d="M29.86,18.14A14,14,0,0,0,19.19,6.38,3.93,3.93,0,0,0,20,4a4,4,0,0,0-8,0,3.93,3.93,0,0,0,.81,2.38A14,14,0,0,0,2.14,18.14,3,3,0,0,0,3,24H29a3,3,0,0,0,.86-5.86ZM16,2a2,2,0,1,1-2,2A2,2,0,0,1,16,2Zm0,6A12,12,0,0,1,27.83,18H4.17A12,12,0,0,1,16,8ZM29,22H3a1,1,0,0,1,0-2H29a1,1,0,0,1,0,2Z"/><path class="cls-1" d="M16,10a1,1,0,0,0,0,2h0a8,8,0,0,1,6.64,3.56,1,1,0,1,0,1.66-1.12A10,10,0,0,0,16,10Z"/></g></g></svg>