<svg xmlns="http://www.w3.org/2000/svg" viewBox="0 0 32.17 24.43"><defs><style>.cls-1{fill:#90f1c0;}</style></defs><g id="Ebene_2" data-name="Ebene 2"><g id="Ebene_1-2" data-name="Ebene 1"><path class="cls-1" d="M29.21,1.16A6.93,6.93,0,0,0,25.41,0a6.33,6.33,0,0,0-4.25,1.6,2.43,2.43,0,0,1-1.61.72,2.74,2.74,0,0,1-1.69-.72A6.51,6.51,0,0,0,13.67,0a7.14,7.14,0,0,0-3,.71A6.32,6.32,0,0,0,6.83,6.84c0,.08,0,.33.17,1.48H6.64A6.48,6.48,0,0,0,2.36,10,6.47,6.47,0,0,0,.22,16.73,9,9,0,0,0,4.9,22.51a16.23,16.23,0,0,0,8.3,1.92h.05c.17,0,.37-.05.6-.07.67-.07,1.57-.17,2.46-.34a11.27,11.27,0,0,0,7.3-4.27A8,8,0,0,0,25.36,15c.21-.1.48-.24.8-.42a10.94,10.94,0,0,0,5.23-5,7.29,7.29,0,0,0,.46-1.14A6.23,6.23,0,0,0,29.21,1.16ZM12.63,12.52a4.14,4.14,0,0,0,2.79-1.16,4.7,4.7,0,0,1,3.17-1.19,5,5,0,0,1,.94.09A4.7,4.7,0,0,1,23,12.73a4.86,4.86,0,0,1,0,4.47,8.3,8.3,0,0,1-4.85,4.37,15,15,0,0,1-5.19,1h-.3a13.35,13.35,0,0,1-7.24-1.92A6.84,6.84,0,0,1,2,15.87a4.6,4.6,0,0,1,1.77-4.6,4.73,4.73,0,0,1,3-1.1,5.41,5.41,0,0,1,2,.43,4.12,4.12,0,0,1,1.12.77A4.24,4.24,0,0,0,12.63,12.52ZM14.17,10a2.28,2.28,0,0,1-1.53.68A2.46,2.46,0,0,1,11.05,10,6.18,6.18,0,0,0,9.3,8.83a2.53,2.53,0,0,0-.36-.12c0-.25-.09-.62-.17-1.2a4.76,4.76,0,0,1,2.43-5,4.91,4.91,0,0,1,2.31-.57,4.85,4.85,0,0,1,3.23,1.17,4,4,0,0,0,2.75,1.1,4.26,4.26,0,0,0,2.83-1.11,4.75,4.75,0,0,1,3.14-1.21,5,5,0,0,1,2.91,1,4.42,4.42,0,0,1,1.5,5.62,7.86,7.86,0,0,1-3.42,3.78l-.34.21-.16.1-.87.52a8.12,8.12,0,0,0-.27-.79,6.61,6.61,0,0,0-4.69-3.81A7.08,7.08,0,0,0,18.6,8.3,6.59,6.59,0,0,0,14.17,10Z"/><path class="cls-1" d="M9.18,12.56H9.12a.9.9,0,0,0-.59.27.67.67,0,0,0,.05.9,5.73,5.73,0,0,0,4,1.36h.05a6,6,0,0,0,4-1.28c.2-.19.67-.64,0-1.05a1,1,0,0,0-.58-.18,1.37,1.37,0,0,0-.69.22l-.12.06-.33.18a6.47,6.47,0,0,1-1.37.58,4.15,4.15,0,0,1-1,.11A4.32,4.32,0,0,1,10,12.84a1.38,1.38,0,0,0-.78-.28Z"/><path class="cls-1" d="M15.9,4.2h-.06a.88.88,0,0,0-.61.26.66.66,0,0,0,0,.9,6,6,0,0,0,4.14,1.37h.06a6.39,6.39,0,0,0,4.1-1.29c.21-.19.69-.63,0-1a1.11,1.11,0,0,0-.6-.18,1.46,1.46,0,0,0-.72.22l-.12.07-.35.17a5.53,5.53,0,0,1-1.41.58,4.42,4.42,0,0,1-1,.12,4.65,4.65,0,0,1-2.68-.89,1.41,1.41,0,0,0-.81-.29Z"/></g></g></svg>