<svg xmlns="http://www.w3.org/2000/svg" viewBox="0 0 32 26"><defs><style>.cls-1{fill:#90f1c0;}</style></defs><g id="Ebene_2" data-name="Ebene 2"><g id="Ebene_1-2" data-name="Ebene 1"><path class="cls-1" d="M5,26H19a5,5,0,0,0,5-5V18h1A7,7,0,0,0,25,4H24V1A1.06,1.06,0,0,0,23.71.3,1,1,0,0,0,23,0H1A1,1,0,0,0,.29.3,1.06,1.06,0,0,0,0,1V21A5,5,0,0,0,5,26ZM24,6h1a5,5,0,0,1,0,10H24ZM11,8h2a1,1,0,0,1,1,1v4a1,1,0,0,1-1,1H9a1,1,0,0,1-1-1H8V9A1,1,0,0,1,9,8ZM2,2h8V6H9A3,3,0,0,0,6,9v4a3,3,0,0,0,3,3h4a3,3,0,0,0,3-3V9a3,3,0,0,0-3-3H12V2H22V21a3,3,0,0,1-3,3H5a3,3,0,0,1-3-3Z"/></g></g></svg>