<svg xmlns="http://www.w3.org/2000/svg" viewBox="0 0 32 30"><defs><style>.cls-1{fill:#90f1c0;}</style></defs><g id="Ebene_2" data-name="Ebene 2"><g id="Ebene_1-2" data-name="Ebene 1"><path class="cls-1" d="M5,30H27a5,5,0,0,0,5-5,3,3,0,0,0-.78-2,3,3,0,0,0,0-4A3,3,0,0,0,32,17a3,3,0,0,0-.53-1.7A2,2,0,0,0,32,14v-.14A14.3,14.3,0,0,0,26.89,3.79,16.76,16.76,0,0,0,16,0,16.76,16.76,0,0,0,5.11,3.79,14.3,14.3,0,0,0,0,13.88V14a2,2,0,0,0,.5,1.28A3,3,0,0,0,0,17a3,3,0,0,0,.78,2,3,3,0,0,0,0,4A3,3,0,0,0,0,25,5,5,0,0,0,5,30ZM6.4,5.32A14.78,14.78,0,0,1,16,2a14.78,14.78,0,0,1,9.6,3.32A12.25,12.25,0,0,1,30,14H2A12.25,12.25,0,0,1,6.4,5.32ZM3,16H29a1,1,0,0,1,0,2H3a1,1,0,0,1,0-2Zm27,5a1,1,0,0,1-1,1H27.41l-2-2H29A1,1,0,0,1,30,21Zm-5.41,1H21.41l-2-2h3.18Zm-6,0H15.41l-2-2h3.18Zm-6,0H9.41l-2-2h3.18ZM3,20H4.59l2,2H3a1,1,0,0,1,0-2Zm0,4H29a1,1,0,0,1,1,1,3,3,0,0,1-3,3H5a3,3,0,0,1-3-3A1,1,0,0,1,3,24Z"/></g></g></svg>