<svg xmlns="http://www.w3.org/2000/svg" viewBox="0 0 25.82 31.97"><defs><style>.cls-1{fill:#8a8a8e;}</style></defs><g id="Ebene_2" data-name="Ebene 2"><g id="Ebene_1-2" data-name="Ebene 1"><path class="cls-1" d="M21.39,9.36l2.18-2.18,1.11,1.1a.49.49,0,0,0,.35.15.51.51,0,0,0,.36-.15.5.5,0,0,0,0-.7L23.93,6.12h0L22.47,4.66a.5.5,0,0,0-.71,0,.48.48,0,0,0,0,.7l1.11,1.11L20.61,8.73a12.88,12.88,0,0,0-5.75-2.41V3.52h1.36a.5.5,0,0,0,.5-.5V.5a.5.5,0,0,0-.5-.5H9.69a.5.5,0,0,0-.5.5V3a.5.5,0,0,0,.5.5h1.36V6.31a12.78,12.78,0,0,0-5.81,2.4L3,6.47,4.1,5.36a.49.49,0,1,0-.7-.7L1.94,6.12h0L.48,7.58a.48.48,0,0,0,0,.7.47.47,0,0,0,.35.15.47.47,0,0,0,.35-.15l1.11-1.1L4.45,9.34a12.91,12.91,0,1,0,16.94,0Zm-9.34-3.2V3a.5.5,0,0,0-.5-.5H10.19V1h5.53V2.52H14.36a.51.51,0,0,0-.5.5V6.16ZM12.91,31A11.9,11.9,0,0,1,5.37,9.86a.47.47,0,0,0,.19-.12s0,0,0-.06A11.9,11.9,0,1,1,12.91,31Z"/><path class="cls-1" d="M18.27,13l-3.54,3.55A3.06,3.06,0,0,0,12.91,16a3.12,3.12,0,1,0,2.52,1.31L19,13.73a.5.5,0,0,0-.71-.71Zm-5.36,8.15a2.11,2.11,0,1,1,2.1-2.1A2.1,2.1,0,0,1,12.91,21.17Z"/></g></g></svg>