<svg xmlns="http://www.w3.org/2000/svg" viewBox="0 0 29.62 29.63"><defs><style>.cls-1{fill:#8a8a8e;}</style></defs><g id="Ebene_2" data-name="Ebene 2"><g id="Ebene_1-2" data-name="Ebene 1"><path class="cls-1" d="M15.05,29.63a3.32,3.32,0,0,1-3.68-2.77c-.17-.75-.44-1.21-.82-1.36A2.21,2.21,0,0,0,8.76,26a3.19,3.19,0,0,1-4.33-.53C3,24,2.77,22.63,3.74,21.14c.37-.56.77-1.35.55-1.9s-.69-.73-1.55-.92A3.22,3.22,0,0,1,0,14.9a3.18,3.18,0,0,1,2.58-3.54c.66-.15,1.49-.45,1.71-1s0-1-.47-1.74a3.13,3.13,0,0,1,.49-4.33c1.37-1.41,2.82-1.65,4.3-.71.58.36,1.39.76,1.93.53s.71-.69.9-1.55C11.93.29,13.68,0,14.94,0s3,.25,3.46,2.58c.13.59.39,1.34.91,1.56s1.35-.15,1.91-.51a3.18,3.18,0,0,1,4.32.59,3.18,3.18,0,0,1,.61,4.32,2.46,2.46,0,0,0-.5,1.93c.18.4.71.69,1.57.86,2.13.42,2.41,2,2.4,3.59,0,.86,0,2.88-2.25,3.32-.88.17-1.42.45-1.61.82s-.08,1.14.47,2.29a3.64,3.64,0,0,1-.23,3.5,3.82,3.82,0,0,1-3.24,1.77.35.35,0,0,1-.21-.05l-.3-.12a10.31,10.31,0,0,1-1.19-.57,2.22,2.22,0,0,0-1.77-.4c-.39.17-.67.64-.85,1.41a3.1,3.1,0,0,1-3.33,2.74Zm-4.86-5.2a2,2,0,0,1,.74.14,2.66,2.66,0,0,1,1.41,2.07c.32,1.43,1.08,2,2.72,2h0a2.1,2.1,0,0,0,2.37-2,2.72,2.72,0,0,1,1.42-2.1,2.94,2.94,0,0,1,2.68.45,8.27,8.27,0,0,0,1.06.5l.22.09a2.8,2.8,0,0,0,2.3-1.3,2.59,2.59,0,0,0,.17-2.54c-.51-1.09-.93-2.23-.46-3.16a3,3,0,0,1,2.32-1.35c1.05-.21,1.42-.82,1.44-2.35s-.23-2.33-1.59-2.6h0a2.85,2.85,0,0,1-2.29-1.44A3.09,3.09,0,0,1,25.3,8a2.18,2.18,0,0,0-.46-3.08,2.18,2.18,0,0,0-3.08-.46,3.08,3.08,0,0,1-2.84.59,2.88,2.88,0,0,1-1.5-2.27C17.14,1.49,16.46,1,15,1s-2.26.51-2.54,1.78A2.89,2.89,0,0,1,10.93,5a3.11,3.11,0,0,1-2.85-.61C7,3.73,6.08,3.9,5,5a2.17,2.17,0,0,0-.38,3.08,2.9,2.9,0,0,1,.57,2.67A3.1,3.1,0,0,1,2.8,12.33C1.54,12.62,1,13.41,1,14.89a2.24,2.24,0,0,0,2,2.45,2.88,2.88,0,0,1,2.25,1.52,3.1,3.1,0,0,1-.63,2.83c-.71,1.08-.55,2,.55,3a2.2,2.2,0,0,0,3.09.4A3.74,3.74,0,0,1,10.19,24.43Z"/><path class="cls-1" d="M15,21a6,6,0,0,1-6.19-6.09,6,6,0,0,1,6-6.29,6,6,0,0,1,6.4,5.89,6.31,6.31,0,0,1-1.66,4.65A6.2,6.2,0,0,1,15,21h0Zm0-.5h0ZM15,9.62h-.17a5,5,0,0,0-5,5.28A5,5,0,0,0,15,20h0a5.19,5.19,0,0,0,3.81-1.53,5.27,5.27,0,0,0,1.39-3.92A5,5,0,0,0,15,9.62Z"/></g></g></svg>