<svg xmlns="http://www.w3.org/2000/svg" viewBox="0 0 93.9 90.44"><defs><style>.cls-1{fill:#8a8a8e;}</style></defs><g id="Ebene_2" data-name="Ebene 2"><g id="Ebene_1-2" data-name="Ebene 1"><path class="cls-1" d="M72,47.49a30.4,30.4,0,1,0-50.22,0C9.27,50.78,0,62.51,0,76.42V86.94a3.5,3.5,0,0,0,7,0V76.42c0-12.07,9-22,20.33-22.72a30.56,30.56,0,0,0,39,0c11.44.6,20.57,10.57,20.57,22.74V86.94a3.5,3.5,0,0,0,7,0V76.42C93.9,62.41,84.53,50.63,72,47.49Zm-40.65.37a3.42,3.42,0,0,0-.7-.62c-.11-.11-.22-.21-.32-.32a23.39,23.39,0,1,1,33.08,0c-.22.23-.46.45-.69.66h0A23.48,23.48,0,0,1,31.3,47.86Z"/></g></g></svg>