<svg xmlns="http://www.w3.org/2000/svg" viewBox="0 0 27.41 31.51"><defs><style>.cls-1{fill:#8a8a8e;}</style></defs><g id="Ebene_2" data-name="Ebene 2"><g id="Ebene_1-2" data-name="Ebene 1"><path class="cls-1" d="M24.69,3h-2.8V2a2,2,0,0,0-2-2h-.51a2,2,0,0,0-2,2V3H10V2A2,2,0,0,0,8,0H7.5a2,2,0,0,0-2,2V3H2.72A2.72,2.72,0,0,0,0,5.71V28.79a2.72,2.72,0,0,0,2.72,2.72h22a2.72,2.72,0,0,0,2.72-2.72V5.71A2.72,2.72,0,0,0,24.69,3ZM18.44,2a1,1,0,0,1,1-1h.51a1,1,0,0,1,1,1V5a1,1,0,0,1-1,1h-.51a1,1,0,0,1-1-1V2ZM6.52,2a1,1,0,0,1,1-1H8A1,1,0,0,1,9,2V5A1,1,0,0,1,8,6H7.5a1,1,0,0,1-1-1V2ZM1,5.71A1.72,1.72,0,0,1,2.72,4h2.8V5a2,2,0,0,0,2,2H8a2,2,0,0,0,2-2V4h7.46V5a2,2,0,0,0,2,2h.51a2,2,0,0,0,2-2V4h2.8a1.72,1.72,0,0,1,1.72,1.73v4.51H1ZM26.41,28.79a1.72,1.72,0,0,1-1.72,1.72h-22A1.72,1.72,0,0,1,1,28.79V11.22H26.41Z"/><path class="cls-1" d="M6.34,20.18H9.16a.76.76,0,0,0,.76-.76V16.6a.76.76,0,0,0-.76-.76H6.34a.76.76,0,0,0-.76.76v2.82A.76.76,0,0,0,6.34,20.18Zm.24-3.34H8.92v2.34H6.58Z"/><path class="cls-1" d="M12.3,20.18h2.82a.76.76,0,0,0,.76-.76V16.6a.76.76,0,0,0-.76-.76H12.3a.76.76,0,0,0-.76.76v2.82A.76.76,0,0,0,12.3,20.18Zm.24-3.34h2.34v2.34H12.54Z"/><path class="cls-1" d="M18.25,20.18h2.82a.76.76,0,0,0,.76-.76V16.6a.76.76,0,0,0-.76-.76H18.25a.76.76,0,0,0-.76.76v2.82A.76.76,0,0,0,18.25,20.18Zm.24-3.34h2.34v2.34H18.49Z"/><path class="cls-1" d="M6.34,26.13H9.16a.76.76,0,0,0,.76-.76V22.55a.76.76,0,0,0-.76-.76H6.34a.76.76,0,0,0-.76.76v2.82A.76.76,0,0,0,6.34,26.13Zm.24-3.34H8.92v2.34H6.58Z"/><path class="cls-1" d="M12.3,26.13h2.82a.76.76,0,0,0,.76-.76V22.55a.76.76,0,0,0-.76-.76H12.3a.76.76,0,0,0-.76.76v2.82A.76.76,0,0,0,12.3,26.13Zm.24-3.34h2.34v2.34H12.54Z"/><path class="cls-1" d="M18.25,26.13h2.82a.76.76,0,0,0,.76-.76V22.55a.76.76,0,0,0-.76-.76H18.25a.76.76,0,0,0-.76.76v2.82A.76.76,0,0,0,18.25,26.13Zm.24-3.34h2.34v2.34H18.49Z"/></g></g></svg>