<svg xmlns="http://www.w3.org/2000/svg" viewBox="0 0 31.95 31.95"><defs><style>.cls-1{fill:#90f1c0;}</style></defs><g id="Ebene_2" data-name="Ebene 2"><g id="Ebene_1-2" data-name="Ebene 1"><path class="cls-1" d="M8,32a8,8,0,0,0,5.65-2.34l16-16A8,8,0,0,0,18.29,2.34l-15.95,16a8,8,0,0,0,0,11.32l.71-.71-.71.71A8,8,0,0,0,8,32ZM2,24a6,6,0,0,1,1.75-4.24l16-16a6,6,0,1,1,8.48,8.49l-15.95,16A6,6,0,0,1,2,24Z"/><path class="cls-1" d="M7,22h8a1,1,0,1,0,0-2H7a1,1,0,0,0,0,2Z"/><path class="cls-1" d="M13,16h8a1,1,0,0,0,0-2H13a1,1,0,0,0,0,2Z"/><path class="cls-1" d="M19,10h8a1,1,0,1,0,0-2H19a1,1,0,0,0,0,2Z"/></g></g></svg>