<svg xmlns="http://www.w3.org/2000/svg" viewBox="0 0 27.47 25.04"><defs><style>.cls-1{fill:#8a8a8e;}</style></defs><g id="Ebene_2" data-name="Ebene 2"><g id="Ebene_1-2" data-name="Ebene 1"><path class="cls-1" d="M27,0H.5A.5.5,0,0,0,0,.5.5.5,0,0,0,.5,1H27a.5.5,0,0,0,0-1Z"/><path class="cls-1" d="M27,6H.5a.5.5,0,0,0,0,1H27a.5.5,0,0,0,0-1Z"/><path class="cls-1" d="M27,18H.5a.5.5,0,0,0,0,1H27a.5.5,0,0,0,0-1Z"/><path class="cls-1" d="M27,24H.5a.5.5,0,0,0,0,1H27a.5.5,0,0,0,0-1Z"/><path class="cls-1" d="M27,12H.5a.5.5,0,0,0,0,1H27a.5.5,0,0,0,0-1Z"/></g></g></svg>