<svg xmlns="http://www.w3.org/2000/svg" viewBox="0 0 26 32"><defs><style>.cls-1{fill:#90f1c0;}</style></defs><g id="Ebene_2" data-name="Ebene 2"><g id="Ebene_1-2" data-name="Ebene 1"><path class="cls-1" d="M19,2a1,1,0,0,0,0-2,7,7,0,0,0-6.93,6.09A5,5,0,0,0,9,8a5,5,0,1,0-4,8H5a5,5,0,0,0,4,8H9a5,5,0,1,0,8,0h0a5,5,0,0,0,4-8h0a5,5,0,1,0-4-8,4.92,4.92,0,0,0-2.91-1.9A5,5,0,0,1,19,2ZM9,14l0,0H9ZM5,14a3,3,0,1,1,3-3A3,3,0,0,1,5,14Zm4,8a3,3,0,1,1,3-3A3,3,0,0,1,9,22Zm4,8a3,3,0,1,1,3-3A3,3,0,0,1,13,30Zm0-8s0,0,0,0h0S13,22,13,22Zm0-6h0s0,0,0,0S13,16,13,16Zm8-8a3,3,0,1,1-3,3A3,3,0,0,1,21,8Zm-4,6,0,0h0Zm0,2a3,3,0,1,1-3,3A3,3,0,0,1,17,16Zm-1-5a3,3,0,1,1-3-3h0A3,3,0,0,1,16,11Z"/></g></g></svg>