<svg xmlns="http://www.w3.org/2000/svg" viewBox="0 0 23.45 31.83"><defs><style>.cls-1{fill:#8a8a8e;}</style></defs><g id="Ebene_2" data-name="Ebene 2"><g id="Ebene_1-2" data-name="Ebene 1"><path class="cls-1" d="M11.73,6.8a4.93,4.93,0,1,0,4.92,4.93A4.93,4.93,0,0,0,11.73,6.8Zm0,8.85a3.93,3.93,0,1,1,3.92-3.92A3.93,3.93,0,0,1,11.73,15.65Z"/><path class="cls-1" d="M11.73,0A11.74,11.74,0,0,0,0,11.73c0,4.65,5.92,13.84,9.45,18.91a2.77,2.77,0,0,0,4.55,0c3.53-5.07,9.45-14.26,9.45-18.91A11.74,11.74,0,0,0,11.73,0Zm1.45,30.06a1.82,1.82,0,0,1-2.91,0C7.48,26.06,1,16.27,1,11.73a10.73,10.73,0,1,1,21.45,0C22.45,16.27,16,26.06,13.18,30.06Z"/></g></g></svg>