<svg xmlns="http://www.w3.org/2000/svg" xmlns:xlink="http://www.w3.org/1999/xlink" viewBox="0 0 128.93 129.9"><defs><style>.cls-1{fill:#fff;}.cls-2{fill:#424953;}.cls-3{fill:#db5a74;}.cls-4{fill:url(#Unbenannter_Verlauf_3);}</style><linearGradient id="Unbenannter_Verlauf_3" x1="2651.94" y1="-2495.21" x2="2652.94" y2="-2495.21" gradientTransform="matrix(102.54, 0, 0, -54.05, -271918.36, -134817.75)" gradientUnits="userSpaceOnUse"><stop offset="0" stop-color="#8cefc0"/><stop offset="1" stop-color="#c3ffba"/></linearGradient></defs><g id="Ebene_2" data-name="Ebene 2"><g id="Ebene_1-2" data-name="Ebene 1"><g id="Gruppe_45" data-name="Gruppe 45"><g id="Gruppe_42" data-name="Gruppe 42"><g id="Gruppe_41" data-name="Gruppe 41"><path id="Pfad_117" data-name="Pfad 117" class="cls-1" d="M64.46,47.78a24.81,24.81,0,0,1,13.49,4L85.67,44a35.64,35.64,0,0,0-42.42,0L51,51.74A24.83,24.83,0,0,1,64.46,47.78Z"/><path id="Pfad_118" data-name="Pfad 118" class="cls-1" d="M64.46,97.7a24.83,24.83,0,0,1-13.49-4l-7.72,7.72a35.66,35.66,0,0,0,42.43,0L78,93.74A24.81,24.81,0,0,1,64.46,97.7Z"/><path id="Pfad_119" data-name="Pfad 119" class="cls-1" d="M93.18,51.53l-7.72,7.72a24.92,24.92,0,0,1,0,27L93.18,94a35.61,35.61,0,0,0,0-42.42Z"/><path id="Pfad_120" data-name="Pfad 120" class="cls-1" d="M39.5,72.74a24.82,24.82,0,0,1,4-13.49l-7.72-7.72a35.61,35.61,0,0,0,0,42.42l7.72-7.72A24.84,24.84,0,0,1,39.5,72.74Z"/><path id="Pfad_121" data-name="Pfad 121" class="cls-2" d="M96.56,48.15a40.43,40.43,0,1,0-40.34,64.18,10.72,10.72,0,1,0,16.49,0A40.44,40.44,0,0,0,96.56,48.15ZM64.46,37a35.57,35.57,0,0,1,21.22,7L78,51.74a25,25,0,0,0-27,0L43.25,44a35.56,35.56,0,0,1,21.21-7ZM84.71,72.74A20,20,0,0,1,82,82.79a20.39,20.39,0,0,1-7.5,7.51,20.17,20.17,0,0,1-20.11,0,20.49,20.49,0,0,1-7.51-7.51,20.2,20.2,0,0,1,0-20.1,20.49,20.49,0,0,1,7.51-7.51,20.17,20.17,0,0,1,20.11,0A20.39,20.39,0,0,1,82,62.69a20.12,20.12,0,0,1,2.69,10ZM35.75,94a35.61,35.61,0,0,1,0-42.42l7.72,7.72a24.92,24.92,0,0,0,0,27Zm28.71,31.24a6,6,0,1,1,6-6h0a6,6,0,0,1-6,6Zm0-16.73a35.56,35.56,0,0,1-21.21-7L51,93.74a25,25,0,0,0,27,0l7.73,7.72a35.57,35.57,0,0,1-21.22,7ZM93.18,94l-7.72-7.72a24.92,24.92,0,0,0,0-27l7.72-7.72a35.61,35.61,0,0,1,0,42.42Z"/></g><path id="Pfad_122" data-name="Pfad 122" class="cls-3" d="M78,93.74l7.73,7.72s2.51-2.09,4.38-3.95A36.3,36.3,0,0,0,93.18,94l-7.72-7.72a46.45,46.45,0,0,1-3.29,4C80.85,91.53,78,93.74,78,93.74Z"/><path id="Pfad_123" data-name="Pfad 123" class="cls-3" d="M51,93.74l-7.72,7.72s-2.52-2.09-4.38-3.95A37.77,37.77,0,0,1,35.74,94l7.72-7.72a48.51,48.51,0,0,0,3.3,4C48.07,91.53,51,93.74,51,93.74Z"/></g><g id="Gruppe_43" data-name="Gruppe 43"><path id="Pfad_124" data-name="Pfad 124" class="cls-4" d="M64.46,21.47A51.33,51.33,0,0,0,13.19,72.74c0,.94,0,1.86.08,2.78H115.66c0-.92.07-1.84.07-2.78A51.33,51.33,0,0,0,64.46,21.47Z"/></g><g id="Gruppe_44" data-name="Gruppe 44"><path id="Pfad_125" data-name="Pfad 125" class="cls-2" d="M126.57,75.52h-6.19c.05-.92.07-1.85.07-2.78A56,56,0,0,0,72.87,17.38a10.72,10.72,0,1,0-16.81,0A56,56,0,0,0,8.48,72.74c0,.93,0,1.86.07,2.78H2.36a2.36,2.36,0,0,0,0,4.72H126.57a2.36,2.36,0,1,0,0-4.72ZM64.47,4.73a6,6,0,1,1-6,6,6,6,0,0,1,6-6Zm51.19,70.79H28.85c-.07-1-.13-1.88-.13-2.78A35.8,35.8,0,0,1,44.13,43.35a2.36,2.36,0,0,0-2.68-3.88A40.49,40.49,0,0,0,24,72.74c0,.9,0,1.84.1,2.78H13.27c0-.92-.07-1.85-.08-2.78a51.28,51.28,0,0,1,102.55,0c0,.93,0,1.86-.08,2.78Z"/><path id="Pfad_126" data-name="Pfad 126" class="cls-2" d="M96.38,51.81A2.35,2.35,0,0,0,95.5,55h0A35.52,35.52,0,0,1,99.91,68.2a2.34,2.34,0,0,0,2.33,2.06l.3,0a2.35,2.35,0,0,0,2-2.63h0a40,40,0,0,0-5-14.92A2.34,2.34,0,0,0,96.38,51.81Z"/></g></g></g></g></svg>