<svg xmlns="http://www.w3.org/2000/svg" viewBox="0 0 33.28 33.33"><defs><style>.cls-1{fill:#90f1c0;}</style></defs><g id="Ebene_2" data-name="Ebene 2"><g id="Ebene_1-2" data-name="Ebene 1"><path class="cls-1" d="M30.17,11.81l.06.14Z"/><path class="cls-1" d="M30.36,12.36a3.05,3.05,0,0,1,.05.41A2.7,2.7,0,0,0,30.36,12.36Z"/><path class="cls-1" d="M29.94,11.39a2.76,2.76,0,0,0-.59-.64l0,0Z"/><path class="cls-1" d="M26.47,18.18h0l.09-.09A.54.54,0,0,1,26.47,18.18Z"/><path class="cls-1" d="M26.47,18.18Z"/><path class="cls-1" d="M26.73,17.91l-.17.18Z"/><path class="cls-1" d="M30.23,12c.05.13.09.27.13.41A2.8,2.8,0,0,0,30.23,12Z"/><path class="cls-1" d="M30.44,13a1.48,1.48,0,0,0,0-.19l0,.23Z"/><path class="cls-1" d="M30,11.48l-.09-.09a2.82,2.82,0,0,1,.23.42A3.27,3.27,0,0,0,30,11.48Z"/><path class="cls-1" d="M33,7.12a1,1,0,0,0-1.41-1.41L27.92,9.36,26.6,8l3.66-3.66a1,1,0,0,0,0-1.42,1,1,0,0,0-1.41,0L25.18,6.63,23.93,5.37l3.66-3.66a1,1,0,0,0,0-1.42,1,1,0,0,0-1.41,0L22.51,4l-.66-.66a3,3,0,0,0-4.47,2.44,3,3,0,0,0-2.84,3A3.07,3.07,0,0,0,15,10.21a3.09,3.09,0,0,0-.95.63,3,3,0,0,0,0,4.25L.88,28.21a3,3,0,0,0,4.24,4.25L18.25,19.33a3,3,0,0,0,4.24,0,2.82,2.82,0,0,0,.63-.95,2.56,2.56,0,0,0,1.35.4v5.66a3,3,0,1,0,6,0V13l0-.23a3.05,3.05,0,0,0-.05-.41c0-.14-.08-.28-.13-.41l-.06-.14a2.82,2.82,0,0,0-.23-.42l-.61-.61,0,0ZM19.66,5.19a1,1,0,0,1,1.42,0L22.49,6.6h0l2.12,2.12,1.61,1.61,1,1,0,.06.06.05.81.8h0a1,1,0,0,1,.29.7s0,0,0,0a1,1,0,0,1-.28.67,1,1,0,0,1-1.42,0l-.26-.26-1.68-1.68L19.66,6.6h0a1,1,0,0,1-.29-.71A.94.94,0,0,1,19.66,5.19ZM3.7,31a.94.94,0,0,1-.7.29A1,1,0,0,1,2.29,31a1,1,0,0,1,0-1.41L15.42,16.5l1.41,1.41ZM21.08,17.91a1,1,0,0,1-.71.29,1,1,0,0,1-.71-.29l-4.24-4.24a1,1,0,0,1,1.41-1.41l4.25,4.24a1,1,0,0,1,0,1.41ZM23.9,16.5l-1.41-1.41L20.37,13,16.83,9.43a1,1,0,0,1,0-1.42,1,1,0,0,1,1.42,0l6.22,6.23.85.85h0a1,1,0,0,1,.29.7,1,1,0,0,1-.29.71,1,1,0,0,1-.71.29.7.7,0,0,1-.14,0A1,1,0,0,1,23.9,16.5Zm4.54,7.94a1,1,0,1,1-2,0V18.18h0v-.07a1.64,1.64,0,0,0,.26-.2,2.8,2.8,0,0,0,.86-2,3.15,3.15,0,0,0,.85-.18Z"/></g></g></svg>