<svg xmlns="http://www.w3.org/2000/svg" viewBox="0 0 25.02 32"><defs><style>.cls-1{fill:#90f1c0;}</style></defs><g id="Ebene_2" data-name="Ebene 2"><g id="Ebene_1-2" data-name="Ebene 1"><path class="cls-1" d="M23.51,12.44V5a3,3,0,0,0-5.89-.78A2.93,2.93,0,0,0,16.51,4a3,3,0,0,0-1,.18V3a3,3,0,0,0-6,0V4.18a3.05,3.05,0,0,0-1-.18,3,3,0,0,0-1.12.22A3,3,0,0,0,1.51,5v7.44A3,3,0,0,0,.07,15.66l1.25,5.59.87,4,1,4.44A3,3,0,0,0,6.11,32h12.8a3,3,0,0,0,2.92-2.35l1-4.43.88-4,1.24-5.58h0A3.5,3.5,0,0,0,25,15,3,3,0,0,0,23.51,12.44ZM19.51,5a1,1,0,0,1,2,0v7h-2Zm-4,2a1,1,0,0,1,2,0v6a2.89,2.89,0,0,1-.88,2.1l0,0a2.91,2.91,0,0,1-1.1.7Zm-4-4a1,1,0,0,1,2,0V16h-2Zm-4,4a1,1,0,0,1,2,0v8.81a3,3,0,0,1-2-2.81Zm-4-2a1,1,0,0,1,2,0v7h-2ZM19.88,29.22a1,1,0,0,1-1,.78H6.11a1,1,0,0,1-1-.78L4.42,26H20.6ZM21,24H4l-.44-2h18ZM23,15.22,21.93,20H3.09L2,15.22,2,15a1,1,0,0,1,.57-.88l.29-.1L3,14h2.6a5.13,5.13,0,0,0,3.9,4h6a5,5,0,0,0,1.79-.86,4.65,4.65,0,0,0,.72-.61h0A4.93,4.93,0,0,0,19.41,14H22l.15,0,.06,0h0l.22.08A1,1,0,0,1,23,15l0,.23Z"/></g></g></svg>