<svg xmlns="http://www.w3.org/2000/svg" viewBox="0 0 65.63 52.95"><defs><style>.cls-1{fill:#1d1d1b;}</style></defs><g id="Ebene_2" data-name="Ebene 2"><g id="Ebene_1-2" data-name="Ebene 1"><path class="cls-1" d="M63.19,7H2.45C1.1,7,0,5.43,0,3.5S1.1,0,2.45,0H63.19c1.35,0,2.44,1.57,2.44,3.5S64.54,7,63.19,7Z"/><path class="cls-1" d="M32.82,53H2.45C1.1,53,0,51.39,0,49.45S1.1,46,2.45,46H32.82c1.35,0,2.44,1.57,2.44,3.5S34.17,53,32.82,53Z"/><path class="cls-1" d="M45.91,30H2.45C1.1,30,0,28.41,0,26.48S1.1,23,2.45,23H45.91c1.35,0,2.44,1.56,2.44,3.5S47.26,30,45.91,30Z"/></g></g></svg>