<svg xmlns="http://www.w3.org/2000/svg" viewBox="0 0 32.18 32.18"><defs><style>.cls-1{fill:#90f1c0;}</style></defs><g id="Ebene_2" data-name="Ebene 2"><g id="Ebene_1-2" data-name="Ebene 1"><path class="cls-1" d="M29.26,2.93a10,10,0,0,0-14.15,0L4.51,13.54a3,3,0,0,0-.88,2.12,3,3,0,0,0,.88,2.12L6.63,19.9.88,25.65h0a3,3,0,0,0,0,4.24l1.41,1.42a3,3,0,0,0,4.25,0l5.75-5.75,2.12,2.12a3,3,0,0,0,4.24,0L29.26,17.07a10,10,0,0,0,0-14.14Zm-24.14,27a1,1,0,0,1-.71.29,1,1,0,0,1-.7-.29L2.29,28.48a1,1,0,0,1,0-1.42l-.7-.7.7.7L8,21.31l2.83,2.83ZM27.84,15.66l-10.6,10.6a1,1,0,0,1-1.42,0L13,23.44,8.75,19.19,5.92,16.36a.94.94,0,0,1-.29-.7A1,1,0,0,1,5.92,15l-.71-.71.71.71L16.53,4.34A8,8,0,0,1,27.84,15.66Z"/><path class="cls-1" d="M24.48,10.29l-8,8a1,1,0,0,0,0,1.42,1,1,0,0,0,1.41,0l8-8a1,1,0,0,0,0-1.42A1,1,0,0,0,24.48,10.29Z"/><path class="cls-1" d="M21.89,6.29a1,1,0,0,0-1.41,0l-8,8a1,1,0,0,0,0,1.42,1,1,0,0,0,1.41,0l8-8A1,1,0,0,0,21.89,6.29Z"/></g></g></svg>