<svg xmlns="http://www.w3.org/2000/svg" viewBox="0 0 33.04 32.05"><defs><style>.cls-1{fill:#727272;}</style></defs><g id="Ebene_2" data-name="Ebene 2"><g id="Ebene_1-2" data-name="Ebene 1"><path class="cls-1" d="M30.48,23.7l-8.69-5.58C23.31,16.55,24,13.88,24,10,24,1.32,20.27.08,16.66,0h-.5C12.47.08,8.7,1.32,8.7,10c0,4,.78,6.69,2.38,8.25L2.56,23.7A5.55,5.55,0,0,0,0,28.39a3.66,3.66,0,0,0,3.67,3.66H29.38A3.66,3.66,0,0,0,33,28.39,5.53,5.53,0,0,0,30.48,23.7Zm-1.1,7.35H3.67A2.67,2.67,0,0,1,1,28.39a4.58,4.58,0,0,1,2.1-3.85l9.08-5.82a.49.49,0,0,0,.23-.41.5.5,0,0,0-.2-.42C10.52,16.64,9.7,14.05,9.7,10c0-8.17,3.35-8.92,6.48-9h.38c3.14.06,6.48.81,6.48,9,0,4-.77,6.53-2.38,7.81a.53.53,0,0,0-.18.42.48.48,0,0,0,.23.39l9.23,5.93A4.56,4.56,0,0,1,32,28.39,2.66,2.66,0,0,1,29.38,31.05Z"/></g></g></svg>