<svg xmlns="http://www.w3.org/2000/svg" viewBox="0 0 34.54 33.56"><defs><style>.cls-1{fill:#676766;}</style></defs><g id="Ebene_2" data-name="Ebene 2"><g id="Ebene_1-2" data-name="Ebene 1"><path class="cls-1" d="M31.64,23.82l-8-5.12c1.27-1.75,1.88-4.37,1.88-8C25.54,1.42,21.25.1,17.48,0a1.24,1.24,0,0,0-.3,0H16.9C13.08.08,8.7,1.37,8.7,10.74c0,3.68.65,6.33,2,8.09l-7.78,5A6.3,6.3,0,0,0,0,29.14a4.43,4.43,0,0,0,4.42,4.42H30.13a4.43,4.43,0,0,0,4.41-4.42A6.3,6.3,0,0,0,31.64,23.82Zm-1.51,7.24H4.42A1.92,1.92,0,0,1,2.5,29.14a3.79,3.79,0,0,1,1.76-3.21l9.08-5.83a1.25,1.25,0,0,0,.57-1,1.27,1.27,0,0,0-.5-1.05c-1.49-1.1-2.21-3.49-2.21-7.3,0-7.5,2.72-8.17,5.73-8.23h.37c3,.06,5.74.73,5.74,8.23,0,3.73-.68,6.1-2.1,7.23a1.26,1.26,0,0,0,.11,2l9.24,5.93A3.78,3.78,0,0,1,32,29.14,1.91,1.91,0,0,1,30.13,31.06Z"/></g></g></svg>