<svg xmlns="http://www.w3.org/2000/svg" viewBox="0 0 32.35 25.71"><defs><style>.cls-1{fill:#8a8a8e;}</style></defs><g id="Ebene_2" data-name="Ebene 2"><g id="Ebene_1-2" data-name="Ebene 1"><path class="cls-1" d="M30.31.05c-.79-.21-1.58.3-2.66,1a14.2,14.2,0,0,1-4,2A43,43,0,0,1,16.1,4.1c-2.91.24-5.43.44-6.94,1.22A10.9,10.9,0,0,0,3.9,18.74,19,19,0,0,0,.09,22.61a.49.49,0,0,0,.13.69.49.49,0,0,0,.69-.13A18.49,18.49,0,0,1,4.3,19.71c0,.1.09.21.15.32a10.69,10.69,0,0,0,9.74,5.68,13.54,13.54,0,0,0,4.91-.95A21,21,0,0,0,31,12.48c1.62-4.27,1.79-8.73.44-11.36A1.87,1.87,0,0,0,30.31.05Zm-.24,12.07A19.94,19.94,0,0,1,18.74,23.83c-5.5,2.14-11,.39-13.4-4.26-.09-.16-.15-.33-.23-.5a25.85,25.85,0,0,1,3.6-2.24,78.24,78.24,0,0,1,9.79-4.24.5.5,0,1,0-.32-.95,80.53,80.53,0,0,0-9.93,4.3A28.37,28.37,0,0,0,4.73,18.1,9.91,9.91,0,0,1,9.62,6.21c1.33-.69,3.88-.9,6.57-1.12A42.67,42.67,0,0,0,23.88,4a15.43,15.43,0,0,0,4.31-2.1A4.79,4.79,0,0,1,29.94,1l.11,0c.17,0,.34.23.51.55C31.79,4,31.6,8.1,30.07,12.12Z"/></g></g></svg>