<svg xmlns="http://www.w3.org/2000/svg" viewBox="0 0 32.02 32.02"><defs><style>.cls-1{fill:#90f1c0;}</style></defs><g id="Ebene_2" data-name="Ebene 2"><g id="Ebene_1-2" data-name="Ebene 1"><path class="cls-1" d="M3,32a3,3,0,0,0,1.12-.23h0A76.64,76.64,0,0,0,15.8,25.16a75.8,75.8,0,0,0,9.92-7.55A8,8,0,0,0,28.06,12,7.38,7.38,0,0,0,27,8h4a1,1,0,0,0,0-2H27.43l3.24-3.24a1,1,0,0,0,0-1.42,1,1,0,0,0-1.41,0L26,4.59V1a1,1,0,0,0-2,0V5a7.47,7.47,0,0,0-3.95-1,8,8,0,0,0-5.66,2.34,75.41,75.41,0,0,0-7.55,9.92A77.33,77.33,0,0,0,.22,27.9,3,3,0,0,0,0,29,3,3,0,0,0,3,32Zm-.92-3.37A75.24,75.24,0,0,1,8.52,17.32c.37-.56.75-1.11,1.12-1.65l2.65,2.64A1,1,0,0,0,13.7,16.9L10.81,14a55.34,55.34,0,0,1,5-6.29,6,6,0,0,1,8.49,0h0a6,6,0,0,1,0,8.48l-3.54-3.53a1,1,0,1,0-1.41,1.41l3.46,3.46a94.92,94.92,0,0,1-8.12,6c-1.16.77-2.33,1.52-3.49,2.23L9.46,24a1,1,0,0,0-1.41,0,1,1,0,0,0,0,1.41l1.4,1.41a50.19,50.19,0,0,1-6.08,3.15L3,30a1,1,0,0,1-1-1Z"/></g></g></svg>