<svg xmlns="http://www.w3.org/2000/svg" viewBox="0 0 31.72 31.86"><defs><style>.cls-1{fill:#90f1c0;}</style></defs><g id="Ebene_2" data-name="Ebene 2"><g id="Ebene_1-2" data-name="Ebene 1"><path class="cls-1" d="M27.72,10.83a4,4,0,0,0,2.82-1.17,4,4,0,0,0,0-5.66,3.94,3.94,0,0,0-1.8-1,4,4,0,0,0-6.68-1.81h0A4,4,0,0,0,20.89,4,3.93,3.93,0,0,0,21,5L18.5,7.55a11,11,0,0,0-3.28-.43C10.58,7.13,5.24,10,.84,14H1a3.09,3.09,0,0,0-1,2.68,10.5,10.5,0,0,0,1.26,4.71,20.63,20.63,0,0,0,3.83,5.24,21.28,21.28,0,0,0,5.24,3.9A10.91,10.91,0,0,0,15,31.86a3.79,3.79,0,0,0,2.77-1h0c4.39-4.4,6.82-9.74,6.83-14.37a11.14,11.14,0,0,0-.48-3.29l2.53-2.53A4,4,0,0,0,27.72,10.83ZM16.77,28.53a1.59,1.59,0,0,1-.37.93,1.92,1.92,0,0,1-1.36.4,8.87,8.87,0,0,1-3.8-1.12A18.8,18.8,0,0,1,6.5,25.21,19.26,19.26,0,0,1,3,20.48a8.91,8.91,0,0,1-1.11-3.8,1.86,1.86,0,0,1,.4-1.36h0a1,1,0,0,1,.42-.25,2.6,2.6,0,0,1,.94-.15A8.69,8.69,0,0,1,7.42,16a19,19,0,0,1,4.74,3.53,19.26,19.26,0,0,1,3.53,4.73,11.69,11.69,0,0,1,.72,1.76c.06.18.12.35.16.52a6.24,6.24,0,0,1,.23,1.53A2.81,2.81,0,0,1,16.77,28.53Zm1.9-1.71a7.47,7.47,0,0,0-.17-.76c-.05-.2-.12-.41-.19-.62a13.34,13.34,0,0,0-.84-2.06,18.32,18.32,0,0,0-1-1.71,22.85,22.85,0,0,0-1.66-2.22c-.38-.44-.79-.87-1.22-1.31a21,21,0,0,0-5.24-3.89,11.91,11.91,0,0,0-3.44-1.2c3.46-2.6,7.22-4,10.33-4a8.71,8.71,0,0,1,3.19.56,6.37,6.37,0,0,1,1.74,1c.17.14.33.28.49.44a6.51,6.51,0,0,1,1.45,2.23,8.77,8.77,0,0,1,.55,3.2A17.93,17.93,0,0,1,18.67,26.82Zm7-18-2.43,2.43a8.21,8.21,0,0,0-.64-.94c-.19-.22-.38-.44-.59-.65a8.36,8.36,0,0,0-1.6-1.24L22.89,6a1,1,0,0,0,.19-1.15A1.92,1.92,0,0,1,22.89,4a2,2,0,0,1,.58-1.41l-.71-.71.71.71a2,2,0,0,1,2.83,0,1.93,1.93,0,0,1,.57,1.3,1,1,0,0,0,1,1,1.93,1.93,0,0,1,1.3.57,2,2,0,0,1,0,2.82,2,2,0,0,1-1.41.59,2,2,0,0,1-.86-.2A1,1,0,0,0,25.72,8.82Z"/><path class="cls-1" d="M11.45,20.27a7.78,7.78,0,0,0-2-1.47,4.64,4.64,0,0,0-2.05-.58,2.3,2.3,0,0,0-1.64.63h0a2.24,2.24,0,0,0-.62,1.64,4.5,4.5,0,0,0,.57,2.05,8.21,8.21,0,0,0,1.47,2,8,8,0,0,0,2,1.47,4.5,4.5,0,0,0,2.05.57,2.26,2.26,0,0,0,1.63-.63,2.23,2.23,0,0,0,.63-1.63,4.43,4.43,0,0,0-.57-2.05A8,8,0,0,0,11.45,20.27Zm0,4.24s0,0-.22,0a2.67,2.67,0,0,1-1.13-.35,6.08,6.08,0,0,1-1.48-1.11,6.22,6.22,0,0,1-1.11-1.48,2.49,2.49,0,0,1-.34-1.12c0-.2,0-.22,0-.22l-.71-.71.71.71s0,0,.22-.05a2.71,2.71,0,0,1,1.13.35A6.08,6.08,0,0,1,10,21.68a6.64,6.64,0,0,1,1.11,1.48,2.62,2.62,0,0,1,.34,1.13C11.49,24.49,11.45,24.51,11.45,24.51Z"/></g></g></svg>