<svg xmlns="http://www.w3.org/2000/svg" viewBox="0 0 31.22 32"><defs><style>.cls-1{fill:#90f1c0;}</style></defs><g id="Ebene_2" data-name="Ebene 2"><g id="Ebene_1-2" data-name="Ebene 1"><path class="cls-1" d="M31.22,13.06a4.87,4.87,0,0,0-.17-1.24,15.7,15.7,0,0,0-2-4.46,16.12,16.12,0,0,0-8-6.4h0a16.07,16.07,0,0,0-5.48-1,16.24,16.24,0,0,0-5,.79h0c-.51.17-1,.36-1.48.57h0A15.81,15.81,0,0,0,4,5.05h0a14.57,14.57,0,0,0-1.39,1.7A15.7,15.7,0,0,0,.16,11.82,4.85,4.85,0,0,0,0,13.06,5,5,0,0,0,5,18h6.33L9.63,25.78l0,.22a6,6,0,0,0,12,0l0-.22L19.85,18h6.34A5,5,0,0,0,31.22,13.06ZM5.39,6.43h0A13.89,13.89,0,0,1,9.23,3.55,3,3,0,0,1,4.67,7.28C4.9,7,5.14,6.7,5.39,6.43ZM15.61,30a4,4,0,0,1-4-3.92L13.41,18h4.4l1.79,8.08A4,4,0,0,1,15.61,30ZM28.34,15.11a3,3,0,0,1-2.15.89H5a3,3,0,0,1-2.15-.89,2.89,2.89,0,0,1-.88-2,3,3,0,0,1,.09-.72A13.78,13.78,0,0,1,3.53,8.92a5,5,0,0,0,7.53-6.16l.18-.07A14,14,0,0,1,27.39,8.44a14,14,0,0,1,1.73,3.9,2.55,2.55,0,0,1,.1.72A2.89,2.89,0,0,1,28.34,15.11Z"/><path class="cls-1" d="M19.61,6a4,4,0,1,0,4,4A4,4,0,0,0,19.61,6Zm0,6a2,2,0,1,1,2-2A2,2,0,0,1,19.61,12Z"/></g></g></svg>