<svg xmlns="http://www.w3.org/2000/svg" viewBox="0 0 33.49 44.24"><defs><style>.cls-1{fill:#90f1c0;}</style></defs><g id="Ebene_2" data-name="Ebene 2"><g id="Ebene_1-2" data-name="Ebene 1"><path class="cls-1" d="M25.31,29.65c-.16-.31-.34-.64-.54-1H6.24a10.42,10.42,0,0,0-.53,1A5.55,5.55,0,0,0,5,32a10.18,10.18,0,0,0,3.91,8,.69.69,0,0,0,.39.11H21.74a.69.69,0,0,0,.39-.11A10.18,10.18,0,0,0,26,32,5.64,5.64,0,0,0,25.31,29.65Z"/><path class="cls-1" d="M33.49,20.14a6.87,6.87,0,0,0-6.86-6.86A6.48,6.48,0,0,0,22,14.89a9.36,9.36,0,0,1-.1-1.3v-2.2a2.74,2.74,0,0,0,2.49-2.63V8.08a2.78,2.78,0,0,0-2.87-2.66h-2.2l.42-2.29A2.53,2.53,0,0,0,19.21,1a3,3,0,0,0-2.3-1H14.27A3,3,0,0,0,12,1a2.53,2.53,0,0,0-.56,2.09l.42,2.29H9.65A2.78,2.78,0,0,0,6.77,8.08v.68a2.74,2.74,0,0,0,2.49,2.63v1.9a9.27,9.27,0,0,1-2.17,6A49.69,49.69,0,0,0,1.16,27.7a9.3,9.3,0,0,0-1.16,4A14.62,14.62,0,0,0,5.65,43.22a4.89,4.89,0,0,0,3,1H22.31a4.89,4.89,0,0,0,3.05-1A14.62,14.62,0,0,0,31,31.73a9.3,9.3,0,0,0-1.16-4c-.19-.39-.41-.79-.66-1.21A6.89,6.89,0,0,0,33.49,20.14ZM24.12,41.65a2.91,2.91,0,0,1-1.81.59H8.7a2.91,2.91,0,0,1-1.81-.59A12.62,12.62,0,0,1,2,31.73a7.57,7.57,0,0,1,1-3.14,47.7,47.7,0,0,1,5.68-8.06,11.41,11.41,0,0,0,2.63-7.24V9.41H9.65c-.48,0-.88-.3-.88-.65V8.08c0-.35.4-.66.88-.66h4.6l-.86-4.66a.55.55,0,0,1,.12-.44A1,1,0,0,1,14.27,2h2.64a1,1,0,0,1,.76.32.56.56,0,0,1,.13.44l-.86,4.66h4.6c.47,0,.87.31.87.66v.68c0,.35-.4.65-.87.65H19.92v4.18a11.29,11.29,0,0,0,2.57,7.13c2.07,2.55,3.56,4.52,4.32,5.7.49.77.91,1.5,1.25,2.17a7.57,7.57,0,0,1,1,3.14A12.62,12.62,0,0,1,24.12,41.65Zm4-16.9c-1.07-1.55-2.75-3.68-4.05-5.29a10,10,0,0,1-1.36-2.23,4.1,4.1,0,0,1,3.94-2,4.85,4.85,0,0,1,1.47,9.47Z"/></g></g></svg>